<?xml version="1.0" encoding="UTF-8" standalone="no"?>
<svg
   class="img-fluid"
   id="outputsvg"
   width="640"
   height="640"
   viewBox="0 0 6500 6400"
   version="1.1"
   sodipodi:docname="logo_no_text.svg"
   inkscape:version="1.4.2 (f4327f4, 2025-05-13)"
   xmlns:inkscape="http://www.inkscape.org/namespaces/inkscape"
   xmlns:sodipodi="http://sodipodi.sourceforge.net/DTD/sodipodi-0.dtd"
   xmlns="http://www.w3.org/2000/svg"
   xmlns:svg="http://www.w3.org/2000/svg">
  <defs
     id="defs2" />
  <sodipodi:namedview
     id="namedview2"
     pagecolor="#505050"
     bordercolor="#ffffff"
     borderopacity="1"
     inkscape:showpageshadow="0"
     inkscape:pageopacity="0"
     inkscape:pagecheckerboard="1"
     inkscape:deskcolor="#505050"
     inkscape:zoom="1.2609375"
     inkscape:cx="320"
     inkscape:cy="320"
     inkscape:window-width="1920"
     inkscape:window-height="1009"
     inkscape:window-x="-8"
     inkscape:window-y="-8"
     inkscape:window-maximized="1"
     inkscape:current-layer="outputsvg" />
  <g
     id="l14N0KF6ek9K0QJ22ciS6pB"
     fill="#ffffff"
     style="display:inline">
    <g
       id="g1">
      <path
         id="p6Yngn3aI"
         d="M 0,3200 V 0 H 3250 6500 V 3200 6400 H 3250 0 Z m 3296,3101 c 36,-22 35,-20 220,-271 521,-703 1131,-1356 1823,-1949 298,-255 737,-593 871,-671 106,-61 143,-93 170,-143 22,-41 23,-49 12,-86 -17,-56 -69,-119 -122,-148 -63,-35 -348,-239 -522,-375 C 5453,2429 5189,2202 4910,1937 4765,1798 4311,1329 4159,1160 3967,946 3659,559 3492,323 3371,152 3343,123 3275,94 c -34,-14 -39,-13 -89,9 -50,23 -67,42 -271,308 -438,571 -747,922 -1221,1389 -451,444 -929,845 -1369,1147 -156,108 -205,151 -227,200 -17,39 -18,49 -7,76 23,58 43,77 179,174 804,577 1415,1127 2085,1878 179,201 554,683 660,848 94,146 107,161 160,179 65,22 83,22 121,-1 z"
         style="display:none" />
      <path
         id="ptccpzh07"
         d="m 3138,5571 c -86,-28 -389,-237 -587,-404 -322,-273 -852,-779 -1086,-1037 -295,-325 -575,-697 -604,-803 -8,-27 -12,-83 -10,-140 4,-90 6,-99 52,-189 140,-277 737,-938 1357,-1502 285,-260 694,-580 805,-632 65,-30 161,-39 255,-25 161,25 367,161 730,481 74,65 152,134 173,152 423,371 928,929 1253,1384 125,174 147,224 152,339 4,84 2,96 -27,165 -67,156 -161,289 -433,610 -179,212 -703,749 -930,953 -299,268 -652,542 -787,610 -80,40 -88,42 -185,44 -55,1 -113,-2 -128,-6 z m 242,-249 c 30,-15 117,-75 195,-134 77,-59 163,-124 190,-145 276,-208 987,-900 1222,-1189 230,-282 281,-348 343,-441 131,-195 124,-234 -98,-533 -363,-489 -840,-983 -1414,-1462 -325,-272 -472,-368 -566,-368 -62,0 -126,37 -332,191 -529,398 -1040,885 -1501,1429 -148,176 -297,374 -325,434 -62,132 -23,208 329,636 193,235 587,647 847,885 278,255 668,577 828,683 99,66 170,70 282,14 z"
         style="display:inline" />
      <path
         id="puU6nQmDV"
         d="m 3060,4771 -65,-6 v -70 c 0,-70 32,-839 38,-926 l 4,-46 -96,-7 c -216,-15 -483,-69 -685,-137 -198,-67 -342,-158 -401,-253 -27,-45 -30,-57 -30,-135 0,-74 4,-93 28,-139 53,-101 150,-178 341,-271 131,-64 214,-91 298,-98 67,-6 68,-6 135,39 38,25 105,69 151,97 75,49 82,56 82,85 v 33 l -102,27 c -137,36 -273,103 -332,162 -86,85 -92,124 -30,188 48,49 104,80 213,116 148,50 452,107 437,82 -4,-6 3,-206 14,-445 11,-239 20,-453 20,-475 v -41 l -112,-3 -113,-3 -3,-28 c -2,-15 6,-53 17,-85 10,-31 80,-230 154,-442 74,-212 144,-418 156,-458 21,-71 22,-72 55,-72 h 33 l 68,192 c 37,106 121,338 186,515 66,177 119,332 119,346 0,31 -26,37 -161,37 h -99 v 43 c 1,23 9,238 19,477 11,239 16,438 13,442 -4,4 -25,9 -47,11 -22,3 5,3 60,1 129,-5 319,-37 470,-80 173,-50 283,-111 332,-185 24,-36 25,-43 14,-78 -15,-50 -80,-110 -163,-150 -74,-35 -95,-37 -164,-16 -27,8 -65,15 -84,15 h -35 l -44,-123 c -24,-67 -46,-139 -48,-159 l -5,-38 h 39 c 21,0 135,24 253,54 118,30 246,60 283,66 l 68,12 -3,36 c -2,29 -8,37 -28,42 -23,5 -22,7 22,33 116,68 178,161 178,268 0,258 -331,417 -1033,494 -31,4 -55,10 -52,15 7,11 45,809 45,941 v 96 l -37,7 c -45,7 -279,5 -373,-3 z m 207,-1048 c -20,-2 -52,-2 -70,0 -17,2 0,4 38,4 39,0 53,-2 32,-4 z m -124,-200 c -13,-2 -33,-2 -45,0 -13,2 -3,4 22,4 25,0 35,-2 23,-4 z"
         style="display:inline" />
    </g>
  </g>
  <g
     id="l21O8KX1rUoDMNiyp5efRZi"
     fill="#016da8"
     style="display:inline">
    <g
       id="g2">
      <path
         id="psjxnm5f0"
         d="m 3145,6332 c -53,-18 -66,-33 -160,-179 C 2879,5988 2504,5506 2325,5305 1662,4561 1013,3976 270,3451 190,3394 115,3336 102,3322 48,3260 37,3185 69,3113 90,3068 144,3022 295,2917 969,2454 1725,1764 2356,1035 2551,810 2636,705 2885,381 3091,112 3105,96 3157,73 c 69,-32 124,-28 191,14 37,22 73,65 172,204 141,197 238,323 449,579 184,223 239,285 559,620 445,465 789,779 1234,1126 182,141 499,369 544,390 104,50 155,204 99,299 -28,48 -59,74 -165,135 -135,78 -574,416 -871,671 -260,223 -440,390 -694,644 -436,436 -780,833 -1129,1305 -185,251 -184,249 -220,271 -39,24 -113,24 -181,1 z m 278,-830 c 133,-67 488,-342 785,-609 227,-204 751,-741 930,-953 272,-321 366,-454 433,-611 58,-136 34,-221 -125,-443 -325,-455 -830,-1013 -1253,-1384 -21,-18 -99,-87 -173,-152 -442,-390 -661,-515 -845,-481 -72,14 -109,33 -250,136 -490,357 -1158,984 -1604,1504 -304,354 -431,550 -439,677 -8,118 22,178 219,439 285,379 660,775 1165,1232 376,339 567,491 768,612 130,77 143,81 234,77 61,-3 85,-9 155,-44 z" />
      <path
         id="p12CcTZvKg"
         d="m 3168,5386 c -59,-16 -111,-51 -312,-207 -503,-391 -1097,-963 -1463,-1409 -303,-369 -356,-453 -356,-568 0,-93 26,-146 148,-307 438,-578 1090,-1221 1705,-1684 227,-170 269,-193 360,-193 59,0 80,5 142,34 89,43 228,145 456,336 600,501 1107,1032 1467,1534 104,145 124,186 131,270 9,89 -7,133 -86,251 -62,93 -113,159 -343,441 -235,289 -948,982 -1222,1189 -27,20 -111,84 -185,140 -161,123 -209,152 -286,172 -69,18 -93,18 -156,1 z m 236,-643 39,-6 -7,-196 c -4,-108 -9,-218 -11,-246 -2,-27 -7,-117 -10,-200 -7,-183 -16,-329 -21,-334 -2,-2 -76,-4 -164,-5 -135,-1 -161,1 -164,14 -3,8 -7,112 -10,230 -4,118 -9,238 -11,265 -4,44 -15,305 -19,425 l -1,45 65,6 c 96,8 269,10 314,2 z m 133,-1068 c 402,-47 701,-142 838,-267 64,-58 105,-132 105,-187 0,-83 -83,-186 -209,-256 -39,-22 -71,-43 -71,-47 0,-4 19,-12 43,-18 71,-18 75,-23 27,-32 -25,-6 -153,-36 -286,-69 -132,-32 -243,-59 -246,-59 -3,0 14,53 38,118 24,64 43,123 44,131 0,9 7,11 23,7 12,-4 53,-14 92,-22 63,-14 73,-14 115,2 108,40 197,108 219,167 6,16 11,48 11,72 0,149 -293,281 -745,335 -116,14 -416,14 -536,0 -215,-26 -462,-91 -556,-146 -62,-36 -109,-89 -123,-138 -10,-38 -10,-48 9,-83 53,-105 198,-196 396,-248 55,-15 101,-28 103,-30 2,-1 -34,-26 -80,-55 -46,-29 -113,-73 -150,-98 l -68,-45 -62,12 c -117,23 -352,135 -465,222 -138,107 -184,247 -118,355 79,127 282,231 614,314 116,29 326,65 421,72 148,12 491,7 617,-7 z m -157,-190 c 3,-2 -3,-182 -12,-402 -9,-219 -17,-435 -17,-480 l -1,-83 h 99 c 54,0 112,-3 128,-6 l 30,-6 -79,-211 c -44,-117 -127,-345 -185,-507 -58,-162 -106,-297 -108,-299 -2,-2 -14,30 -26,70 -17,59 -173,511 -307,892 -11,31 -17,58 -14,59 4,0 12,2 17,3 6,2 55,3 109,4 l 99,1 -8,223 c -4,122 -8,238 -10,257 -3,36 -17,375 -19,445 l -1,40 60,6 c 54,6 233,2 245,-6 z" />
    </g>
  </g>
</svg>
